<?xml version="1.0" standalone="no"?>
<!DOCTYPE svg PUBLIC "-//W3C//DTD SVG 20010904//EN"
 "http://www.w3.org/TR/2001/REC-SVG-20010904/DTD/svg10.dtd">
<svg version="1.0" xmlns="http://www.w3.org/2000/svg"
 width="522.000000pt" height="484.000000pt" viewBox="0 0 522.000000 484.000000"
 preserveAspectRatio="xMidYMid meet">
<metadata>
Created by potrace 1.15, written by Peter Selinger 2001-2017
</metadata>
<g transform="translate(0.000000,484.000000) scale(0.100000,-0.100000)"
fill="#000000" stroke="none">
<path d="M620 4807 c0 -31 4 -35 43 -47 152 -45 232 -132 275 -298 16 -62 17
-161 17 -1237 0 -1280 1 -1264 -60 -1523 -99 -416 -380 -776 -807 -1031 -79
-47 -88 -56 -88 -82 0 -34 1 -35 105 -10 255 62 453 177 642 375 228 238 340
490 397 891 37 261 39 329 43 1651 l4 1311 -123 7 c-68 4 -172 11 -233 17 -60
5 -134 9 -162 9 l-53 0 0 -33z"/>
<path d="M1735 4830 c-49 -4 -152 -11 -227 -15 l-138 -7 0 -1317 c0 -758 -5
-1380 -10 -1466 -16 -233 -57 -414 -134 -588 -9 -20 -13 -37 -9 -36 5 0 42 41
83 91 67 82 185 186 198 174 2 -3 -5 -40 -16 -83 -126 -473 -46 -924 203
-1152 59 -54 169 -125 185 -119 5 2 -4 23 -21 48 -173 256 -217 583 -138 1038
77 446 254 827 507 1095 30 32 52 60 49 64 -10 9 -165 -79 -251 -144 -110 -83
-212 -193 -299 -325 l-72 -108 -12 53 c-7 28 -17 110 -23 181 -13 168 -13
2084 0 2181 30 216 112 323 283 372 52 15 57 19 57 45 0 28 0 28 -62 27 -35
-1 -103 -5 -153 -9z"/>
<path d="M3540 2989 c-351 -31 -665 -149 -939 -354 -363 -271 -585 -656 -687
-1195 -36 -184 -44 -462 -20 -609 58 -347 254 -599 570 -730 284 -118 725
-135 1166 -44 113 23 322 80 425 116 l40 14 87 214 c76 189 88 211 96 189 43
-110 175 -438 182 -449 5 -10 48 69 131 238 94 192 127 253 143 256 12 2 124
16 251 30 126 15 231 28 233 30 7 7 -13 32 -178 224 -122 143 -164 198 -162
214 2 12 26 137 52 277 27 140 48 256 45 258 -2 2 -107 -51 -234 -118 l-230
-121 -221 141 c-122 78 -224 140 -226 138 -2 -2 12 -130 31 -283 l34 -280
-192 -192 c-105 -106 -189 -194 -187 -196 3 -2 102 -23 220 -47 118 -23 221
-46 228 -50 34 -18 -218 -198 -391 -280 -233 -110 -397 -149 -653 -157 -262
-8 -417 18 -579 97 -154 75 -250 173 -329 335 -109 222 -128 480 -61 814 83
407 268 753 521 973 261 227 571 341 924 341 281 0 460 -61 600 -202 118 -119
179 -273 202 -503 l11 -118 28 0 c25 0 28 5 48 78 27 103 56 228 75 332 9 47
38 168 66 269 27 102 48 186 47 187 -1 1 -53 18 -116 38 -344 111 -713 155
-1051 125z"/>
</g>
</svg>
